<?xml version="1.0" encoding="utf-8"?>
<!-- Generator: Adobe Illustrator 25.0.0, SVG Export Plug-In . SVG Version: 6.00 Build 0)  -->
<svg version="1.1" id="Layer_1" xmlns="http://www.w3.org/2000/svg" xmlns:xlink="http://www.w3.org/1999/xlink" x="0px" y="0px"
	 viewBox="0 0 550.8 271" style="enable-background:new 0 0 550.8 271;" xml:space="preserve">
<style type="text/css">
	.st0{fill:#CECECE;}
</style>
<g>
	<path class="st0" d="M287.5,204.7c-11.1,0-20.1-6.7-20.1-19.4v-47.2h11.3v46.3c0,6.1,3.4,9.2,8.8,9.2V204.7z"/>
	<path class="st0" d="M443.4,194.8c-7.1,0-14.6-4.8-14.6-15.3c0-10.6,7.6-15.3,14.6-15.3c7,0,14.6,4.7,14.6,15.3
		C458,190.1,450.4,194.8,443.4,194.8 M469.7,179.4c0-16-12.1-26.3-26.3-26.3c-13.6,0-25.3,9.4-26.3,24.1v0.8v1.4v1.4v50.9H428v-30.6
		l0,0v-2.7c4.4,6.5,13.3,7.3,16.2,7.4l0.3,0l0.7,0l-0.2,0C457.6,205.4,469.7,195.4,469.7,179.4"/>
	<path class="st0" d="M380.7,194.7c-7,0-14.6-4.8-14.6-15.3c0-10.6,7.6-15.3,14.6-15.3c7.1,0,14.6,4.7,14.6,15.3
		C395.3,189.9,387.8,194.7,380.7,194.7 M406.8,179.4c0-16.6-12.6-26.3-26.9-26.3c-14.2,0-25.7,10.9-25.7,26.3
		c0,14.9,10.8,25.7,24.4,26.4l1.1,0c1.7,0,4.4-0.3,7.4-1.4c0.8-0.3,1.6-0.6,2.4-1c2.2-1.1,4.5-2.7,6.7-4.9h0.3l8.9,7.2h1.6v-26l0,0
		L406.8,179.4z"/>
	<path class="st0" d="M382.6,108.8c-7,0-14.6-4.8-14.6-15.3c0-10.6,7.6-15.3,14.6-15.3c7.1,0,14.6,4.7,14.6,15.3
		C397.2,104,389.6,108.8,382.6,108.8 M408.6,93.4c0-16.6-12.6-26.3-26.9-26.3c-14.2,0-25.7,10.9-25.7,26.3c0,14.8,10.6,25.5,24,26.4
		c2.1,0.1,11.3,0,18.4-7.5h0.3l8.3,7.5h1.6v-26l0,0L408.6,93.4z"/>
	<path class="st0" d="M486.5,41.7c4.2,0,7.5,3.3,7.5,7.4c0,4.1-3.3,7.4-7.5,7.4c-4,0-7.3-3.3-7.3-7.4
		C479.2,45,482.5,41.7,486.5,41.7"/>
	<rect x="481.2" y="67.1" class="st0" width="10.9" height="52.7"/>
	<path class="st0" d="M540.7,101.6c-2.7,4.9-7.8,7.2-12.7,7.2c-7,0-14.6-4.8-14.6-15.3c0-10.6,7.6-15.3,14.6-15.3
		c4.9,0,10,2.2,12.7,7.1l10.1-5.7c-4.6-7.9-13.2-12.5-22.7-12.5c-14.2,0-26.3,10.4-26.3,26.3c0,16.1,12.1,26.4,26.3,26.4
		c9.5,0,18.1-4.6,22.7-12.5L540.7,101.6z"/>
	<path class="st0" d="M324.2,66c-4.2,0-8.1,1.1-11.5,3.1c-1.5,0.9-4.3,2.9-5.4,5h-0.1h-0.1h-0.1c-1.1-2.1-3.9-4.1-5.4-5
		c-3.4-2-7.3-3.1-11.5-3.1c-12.6,0-22.8,10.2-22.8,22.8v30.5H279V88.8h0c0-6.2,5-11.2,11.2-11.2c6.2,0,11.2,5,11.2,11.2v30.5H313
		V88.8c0-6.2,5-11.2,11.2-11.2c6.2,0,11.2,5,11.2,11.2h0v30.5H347V88.8C347,76.2,336.8,66,324.2,66"/>
	<path class="st0" d="M320.2,163.7c7,0,12.1,4.1,14.4,9.8h-0.4h-28h0C308.2,167.5,313.3,163.7,320.2,163.7 M332.4,188.5
		c-2.7,3.7-7,6-12.3,6c-8,0-13.4-4.9-14.8-11.6h0.6h29h11.4c0.2-1.2,0.3-2.4,0.3-3.6c0-14.6-11.8-26.4-26.4-26.4
		c-14.6,0-26.4,11.8-26.4,26.4c0,14.6,11.8,26.4,26.4,26.4c9.7,0,18.1-5.2,22.7-12.9L332.4,188.5z"/>
	<path class="st0" d="M443.7,108.9c-7,0-14.6-4.8-14.6-15.3c0-10.6,7.6-15.3,14.6-15.3c7.1,0,14.8,4.7,14.8,15.3
		C458.4,104.1,450.7,108.9,443.7,108.9 M470,93.3c0-15.9-12.1-26.3-26.3-26.3c-14.2,0-26.3,10.4-26.3,26.3
		c0,16.1,12.2,26.4,25.5,26.4c0.5,0,1,0,1.5,0c3-0.3,7.6-1.4,12-5.1l0.6-0.7c0.8-0.9,1.5-2,1.7-3l0,8c0,0,0.2,5.8-3.8,10.5l0,0
		c-2.9,3.5-7.1,5.1-11.3,5.1c-5.2,0-10.8-2.7-13.3-8.5l-10.7,4.4c4.2,9.4,13.5,15,24,15c14.3,0,26.3-10.3,26.3-26.4h0L470,93.3
		L470,93.3z"/>
</g>
<g>
	<path class="st0" d="M190.4,116c-9-33.9-39.9-59-76.6-59s-67.6,25-76.6,59C19.3,131.3,6.1,152,0,175.6c11.8-4.2,25.3-7.8,40-10.5
		c11.5,29.5,40.2,50.4,73.8,50.4c33.6,0,62.3-20.9,73.8-50.4c14.7,2.8,28.1,6.3,40,10.5C221.5,152,208.3,131.3,190.4,116z
		 M89.5,114.5c-3.4,11.1-13.8,17.7-23,14.9c-9.3-2.9-14-14.2-10.6-25.3c3.4-11.1,13.8-17.7,23-14.9C88.2,92.1,92.9,103.4,89.5,114.5
		z M161,129.4c-9.3,2.9-19.6-3.8-23-14.9c-3.4-11.1,1.3-22.4,10.6-25.3c9.3-2.9,19.6,3.8,23,14.9C175,115.2,170.3,126.5,161,129.4z"
		/>
</g>
</svg>
