<?xml version="1.0" encoding="utf-8"?>
<!-- Generator: Adobe Illustrator 25.0.0, SVG Export Plug-In . SVG Version: 6.00 Build 0)  -->
<svg version="1.1" id="Layer_1" xmlns="http://www.w3.org/2000/svg" xmlns:xlink="http://www.w3.org/1999/xlink" x="0px" y="0px"
	 viewBox="0 0 191.4 75.5" style="enable-background:new 0 0 191.4 75.5;" xml:space="preserve">
<style type="text/css">
	.st0{fill:#CECECE;}
	.st1{fill:#CECECE;stroke:#231F20;stroke-width:0.7069;}
	.st2{fill:#CECECE;stroke:#231F20;stroke-width:8.938000e-02;}
</style>
<g>
	<g>
		<g>
			<path class="st0" d="M35.5,41.1l3.4,0.1l-0.2,1h-6.4l1-7.4l-0.1-0.1c-2.2,4-5.5,8.1-10.5,8.1c-4.3,0-8-2.4-8-7.2
				c0-4.8,0.9-10,2-17.2l0.8-5.5l-3.4-0.1l0.2-1.1c1.6,0,3.2,0.1,4.9,0.1c1.6,0,3.2-0.1,4.9-0.1L24,12.9L20.7,13L19,24.3
				c-0.7,4.5-1.3,7.6-1.3,10.5c0,3.9,2.5,6.1,5.9,6.1c7.5,0,10.1-8.3,10.7-12.5L36.3,13l-3.1-0.1l0.2-1.1c1.6,0,3.2,0.1,4.7,0.1
				c1.6,0,3.2-0.1,4.7-0.1l-0.2,1.1L39.5,13L35.5,41.1z"/>
			<path class="st0" d="M45.3,14.9c1.9-2.3,3.5-5,4.7-5c0.6,0,0.9,0.5,0.9,1.5c0,2.2-3.4,24.5-3.4,25.9c0,1.4,0.2,1.7,0.6,1.7
				c0.4,0,1.6-1.7,2-2l0.7,0.8c-2.2,2.5-4,4.7-4.5,4.7c-0.7,0-1.5-0.4-1.5-2.9c0-1.8,0.8-7.5,1.7-12.9c0.9-5.4,1.7-10.8,1.7-12
				c0-0.7-0.3-1-0.5-1c-0.4,0-1.4,1.4-1.6,1.7L45.3,14.9z"/>
			<path class="st0" d="M57,24.6l0.9-6.3h2.6l-0.9,6.3h3.7l-0.2,1.1h-3.6c-0.2,1.8-1.5,9.9-1.5,11.6c0,0.8,0.4,1.7,0.8,1.7
				c0.5,0,1.4-1.7,1.9-2.1l0.8,0.6c-0.6,0.5-3.1,4.9-3.8,4.9c-1.5,0-2.4-3.4-2.4-4.8c0-1.8,1.4-10,1.6-12h-3l0.2-1.1H57z"/>
			<path class="st0" d="M65.8,42.2l1.8-11.8c0.2-1.4,0.2-1.8,0.2-2.1c0-0.4,0-0.7-0.3-0.7c-0.3,0-1.8,1.9-2,2.2l-0.7-0.4
				c0.7-1.1,3.3-5.1,4.8-5.1c0.7,0,0.8,0.4,0.8,1.1c0,1.6-0.4,4.8-0.5,5.5h0.1c0.8-2.1,3.2-6.6,5.9-6.6c0.5,0,1,0,1.4,0.1L76.6,27
				c-0.4,0-0.8-0.2-1.2-0.2c-3.1,0-5.3,6.4-5.9,8.6c-0.6,2.2-0.8,4.5-1.2,6.8H65.8z"/>
			<path class="st0" d="M87.4,32.1c-0.2,1.5-5.6,7.7-7.6,7.7c-0.7,0-1.1-0.7-1.1-2c0-4.1,2.9-11,7.4-11c0.7,0,1.2,0.1,2.2,0.6
				L87.4,32.1z M88.9,24.3l-0.2,0.8c-0.3,0-0.6,0-0.8,0c-6,0-12,7.1-12,13.4c0,3,0.7,4.1,2,4.1c2.4,0,7.1-5.9,8.9-7.5h0.1
				c-0.1,1-1,4.1-1,6.1c0,1.3,0.4,1.9,1.1,1.9c1.1,0,3.8-4,4.6-4.8l-0.8-0.4c-0.6,0.9-1.3,1.8-2.3,2.4l2.9-15.8H88.9z"/>
		</g>
		<path class="st0" d="M117.3,27.4h0.8c1.3,0,2.9,0.1,2.9,1.8c0,1.8-1.5,2-2.9,2h-0.8V27.4z M109.7,43.3h7.7v-6.6h4.1
			c4.4,0,7.2-2.8,7.2-7.3c0-5.4-3.8-8-8.9-8h-10.1V43.3z"/>
		<path class="st0" d="M138,27.4h0.6c1.4,0,2.6,0.2,2.6,1.9c0,1.6-1.3,1.8-2.6,1.8H138L138,27.4z M130.2,43.3h7.8l0-7h0.1l3.5,7h9.2
			l-4.8-7.1c-0.4-0.6-0.9-1-1.3-1.3v-0.2c3-1,4.2-2.4,4.2-5.7c0-5.5-4.2-7.6-9.1-7.6h-9.6V43.3z"/>
		<path class="st0" d="M162.9,28.2c2.5,0,4.1,1.9,4.1,4.3c0,2.5-1.7,4.2-4.1,4.2c-2.4,0-4.1-1.7-4.1-4.2
			C158.8,30.2,160.4,28.2,162.9,28.2z M162.9,21c-6.7,0-12.1,4.5-12.1,11.4c0,7,5.4,11.3,12.1,11.3c6.7,0,12.1-4.2,12.1-11.3
			C175,25.5,169.6,21,162.9,21z"/>
		<g>
			<path class="st0" d="M99.7,36.8c-2.6,0-4.7-2.2-4.7-4.9c0-2.7,2.1-4.9,4.7-4.9c2.6,0,4.8,2.2,4.8,4.9
				C104.5,34.6,102.4,36.8,99.7,36.8z"/>
		</g>
	</g>
	<path class="st0" d="M175.8,23.8c0-1.3,1-2.3,2.3-2.3c1.3,0,2.3,1,2.3,2.3c0,1.3-1,2.3-2.3,2.3C176.8,26.1,175.8,25.1,175.8,23.8z
		 M178.1,26.6c1.5,0,2.8-1.2,2.8-2.8c0-1.6-1.3-2.8-2.8-2.8c-1.5,0-2.8,1.2-2.8,2.8C175.2,25.4,176.5,26.6,178.1,26.6z M177.5,24
		h0.6l0.8,1.4h0.5l-0.9-1.4c0.5-0.1,0.8-0.3,0.8-0.9c0-0.6-0.4-0.9-1.1-0.9H177v3.2h0.5V24z M177.5,23.6v-1h0.7
		c0.3,0,0.7,0.1,0.7,0.5c0,0.5-0.4,0.5-0.8,0.5H177.5z"/>
</g>
<line class="st1" x1="14.9" y1="47.7" x2="174.7" y2="47.7"/>
<g>
	<path class="st2" d="M15.3,59.9l0.9-0.6v-6.2l-0.9-0.6h6.2v1.5l-1.1-0.9h-2.7v2.5h1.9l0.9-0.6v1.9l-0.9-0.6h-1.9v3.1h2.7l1.1-0.9
		v1.5H15.3z"/>
	<path class="st2" d="M34.6,53.1v7.4l-5.7-6.7v5.4l0.9,0.6h-2.7l0.9-0.6v-6.2l-0.9-0.6h2.5l4.1,4.8v-4.2l-0.9-0.6h2.7L34.6,53.1z"/>
	<path class="st2" d="M46.8,53.1h-1.7v6.2l0.9,0.6h-3.2l0.9-0.6v-6.2h-1.7l-1.1,0.9v-1.5h7.1v1.5L46.8,53.1z"/>
	<path class="st2" d="M53.3,59.9l0.9-0.6v-6.2l-0.9-0.6h6.2v1.5l-1.1-0.9h-2.7v2.5h1.9l0.9-0.6v1.9l-0.9-0.6h-1.9v3.1h2.7l1.1-0.9
		v1.5H53.3z"/>
	<path class="st2" d="M71.2,59.9l-2.4-3.4h-1.3v2.8l0.9,0.6h-3.2l0.9-0.6v-6.2l-0.9-0.6h3.6c1.7,0,3.4,0.7,3.4,2
		c0,0.8-0.8,1.5-1.8,1.8l2.2,3l0.9,0.6H71.2z M68.7,53.1h-1.2v2.8h1.2c0.9,0,1.7-0.5,1.7-1.4C70.4,53.6,69.7,53.1,68.7,53.1z"/>
	<path class="st2" d="M83.5,53.1h-1.7v6.2l0.9,0.6h-3.2l0.9-0.6v-6.2h-1.7l-1.1,0.9v-1.5h7.1v1.5L83.5,53.1z"/>
	<path class="st2" d="M93.8,59.9l0.8-0.6L94,57.8h-3.3l-0.7,1.5l0.8,0.6h-2.7l0.9-0.7l3.1-6.8h0.9l3.1,6.8l0.9,0.7H93.8z M92.5,54.2
		l-1.4,3h2.7L92.5,54.2z"/>
	<path class="st2" d="M102.3,59.9l0.9-0.6v-6.2l-0.9-0.6h3.2l-0.9,0.6v6.2l0.9,0.6H102.3z"/>
	<path class="st2" d="M118.8,53.1v7.4l-5.7-6.7v5.4l0.9,0.6h-2.7l0.9-0.6v-6.2l-0.9-0.6h2.5l4.1,4.8v-4.2l-0.9-0.6h2.7L118.8,53.1z"
		/>
	<path class="st2" d="M132.4,59.9l0.9-0.6v-5.6l-3.1,4.1l-3.1-4.1v5.6l0.9,0.6h-2.7l0.9-0.6v-6.2l-0.9-0.6h2.6l2.7,3.6l2.7-3.6h2.3
		l-0.9,0.6v6.2l0.9,0.6H132.4z"/>
	<path class="st2" d="M141.2,59.9l0.9-0.6v-6.2l-0.9-0.6h6.2v1.5l-1.1-0.9h-2.7v2.5h1.9l0.9-0.6v1.9l-0.9-0.6h-1.9v3.1h2.7l1.1-0.9
		v1.5H141.2z"/>
	<path class="st2" d="M160.6,53.1v7.4l-5.7-6.7v5.4l0.9,0.6H153l0.9-0.6v-6.2l-0.9-0.6h2.5l4.1,4.8v-4.2l-0.9-0.6h2.7L160.6,53.1z"
		/>
	<path class="st2" d="M172.7,53.1h-1.7v6.2l0.9,0.6h-3.2l0.9-0.6v-6.2h-1.7l-1.1,0.9v-1.5h7.1v1.5L172.7,53.1z"/>
</g>
</svg>
