<?xml version="1.0" encoding="utf-8"?>
<!-- Generator: Adobe Illustrator 25.0.0, SVG Export Plug-In . SVG Version: 6.00 Build 0)  -->
<svg version="1.1" id="Layer_1" xmlns="http://www.w3.org/2000/svg" xmlns:xlink="http://www.w3.org/1999/xlink" x="0px" y="0px"
	 viewBox="0 0 550.8 271" style="enable-background:new 0 0 550.8 271;" xml:space="preserve">
<style type="text/css">
	.st0{fill-rule:evenodd;clip-rule:evenodd;fill:#CECECE;}
</style>
<g>
	<path class="st0" d="M148.5,139.6l11.4,25.4c-2.5,1.6-5.7,3.3-9.4,5.3c-4.2,2.3-7.4,4.2-9.7,5.7c-5.7-14.3-9.5-23.5-11.5-27.7
		l-1.6,0.4l0,37.4c0,8.3,2.2,14.6,6.6,18.8c4.1,4,8.6,6,13.7,6c4.2,0,8.5-1.5,13.1-4.5l0.7,1.4c-7.6,4.9-13.4,8.7-17.2,11.5
		c-3.8,2.8-8.8,6.6-15.1,11.7c-1.6-1.1-2.6-1.9-3-2.2c-8.1-5.7-13.1-9.3-15-11.1c-1.8-1.8-3.3-4.1-4.4-7c-0.9-2.4-1.5-5.4-1.8-9.1
		c-0.3-3.7-0.4-10.1-0.4-19.2c0-11.5,0.8-19.2,2.3-22.9c1.5-3.8,4.9-6.6,10.2-8.5L148.5,139.6z M196.2,215.1
		c0.6,5.9,4.6,11.1,12.1,15.7c1.5-1.7,5.3-5.1,11.3-10.1c2.7-2.1,4.3-3.3,4.8-3.7l-0.7-0.8c-1.8,1.2-3.1,1.8-3.9,1.8
		c-1.4,0-2.7-1-3.6-2.9c-1-2-1.5-4.8-1.5-8.2l0-12.8c0.1-6.5,0.2-10.5,0.4-11.8c0.2-1.3,0.7-2.4,1.4-3c0.8-0.6,2.6-1.1,5.5-1.7
		l0-0.9c-5.2-1.9-9.3-3.9-12.5-6c-3.2-2.1-6.5-5-9.9-8.7c-4.3,3.1-7.5,5.2-9.8,6.4c-2.2,1.2-5.8,2.8-10.7,4.9
		c-5.7,2.3-9.2,4.5-10.7,6.4c-1.5,1.9-2.2,5.5-2.2,10.6l0,16.4c0,6.3,0.7,10.9,2.3,13.9c1.5,2.9,4.9,6.3,10.1,10.2
		c2.2-2.1,5-4.8,8.6-8C190.9,219.6,193.9,217,196.2,215.1 M196.2,180.8l0,25.2l0,3.2v2.4l0,1.7c-3.6,3.1-5.8,4.6-6.8,4.6
		c-0.7,0-1.3-0.3-1.9-0.8c-0.6-0.6-1.1-1.3-1.3-2c-0.6-2.1-0.9-5.4-0.9-10l0-33.1l0.6-0.3C189.2,175.7,192.6,178.8,196.2,180.8
		 M255,176.3l20.2-15.8c1.7,2.8,4.1,5.4,7,7.8c2.9,2.4,5.9,4.3,9.1,5.5v1.2c-3.9-0.2-6,1.1-6.2,3.9l0,31.1c0,1.8,0.4,3.2,1.2,4.5
		c0.8,1.2,1.9,1.8,3.1,1.8c0.7,0,2-0.6,4.1-1.8l0.7,1.2c-0.8,0.6-3,2.3-6.5,5c-4.9,3.7-9,7.1-12.4,10.1c-4-2.5-6.6-4.9-7.9-7.2
		c-1.3-2.3-1.9-5.7-1.9-10.2l0-32.4c0-2.6-0.3-4.4-0.8-5.3c-0.5-0.9-1.5-1.4-3-1.4c-1.3,0-2.6,0.6-3.9,1.7l-2.7,2.3l0,33
		c0,2.3,0.4,3.9,1.1,4.8c0.7,0.9,2.1,1.6,4.1,1.9l0,0.8c-5.3,1.8-10.7,5.7-16.1,11.8c-4.9-6.5-9.9-10.5-14.9-12.2v-1.1
		c2.7-0.1,4.4-0.6,5.2-1.5c0.8-0.9,1.2-2.9,1.2-5.9l0-27.4c0-2.6-0.4-4.6-1.3-6.1c-0.9-1.4-2-2.2-3.5-2.2c-1.3,0-2.8,0.6-4.4,1.9
		l-1-1.2l1.1-0.9c9.1-7.5,14.4-12,15.9-13.7C249.9,164.1,254.1,169.4,255,176.3 M333.2,161.4l9.4,19.3c-2.1,1.2-4.7,2.5-7.8,4
		c-3.5,1.8-6.1,3.2-8,4.3c-4.7-10.9-7.9-17.9-9.5-21.1l-1.3,0.3l0,28.5c0,6.3,1.8,11.1,5.5,14.3c3.4,3,7.1,4.5,11.3,4.5
		c3.5,0,7.1-1.1,10.8-3.5l0.6,1.1c-6.3,3.7-11.1,6.6-14.2,8.7c-3.2,2.1-7.3,5.1-12.4,8.9c-1.3-0.9-2.2-1.4-2.5-1.7
		c-6.7-4.3-10.8-7.1-12.4-8.4c-1.5-1.3-2.7-3.1-3.6-5.4c-0.7-1.8-1.2-4.1-1.4-6.9c-0.2-2.8-0.3-7.7-0.3-14.6
		c0-8.8,0.6-14.6,1.9-17.5c1.3-2.9,4.1-5,8.5-6.5L333.2,161.4z M378.3,160.3l-8.7,4c-8.2,3.5-13.2,5.6-14.8,6.4
		c-1.6,0.8-3.1,1.9-4.6,3.3c-1.7,1.5-2.9,3.5-3.6,5.9c-0.7,2.4-1.1,5.7-1.1,9.7c0,7.9,0.4,14.1,1.2,18.7c0.8,4.5,2.2,8,4,10.5
		c3.3,4.2,9.2,8.2,17.8,12c2.1-2,3.8-3.5,5.1-4.5c1.3-1,5.2-3.9,11.9-8.7c4.3-3.1,7.2-5.1,8.6-6l-0.6-1.1c-4.4,3.1-8.5,4.7-12.3,4.7
		c-3.9,0-7.7-1.6-11.3-4.7c-3-2.6-5.1-5.7-6.4-9.5l28.9-18.1L378.3,160.3z M363.7,169.3l12.4,21.8l-12.8,7.9
		c-0.2-3.9-0.3-6.5-0.2-7.7C363.1,180.4,363.3,173.1,363.7,169.3 M439.3,160.2l11.2,17.6l-13.7,13.6l-9.6-16.7l-4.1,4l0,25.9
		c0,3.9,1.1,6.8,3.4,8.7c1.6,1.3,3.3,2,5,2c1.3,0,2.4-0.3,3.4-0.8c0.9-0.5,3.5-2.5,7.6-5.7l0.9,1.2c-2.1,1.9-5.3,4.6-9.5,8
		c-6.4,5.2-11.5,9.5-15.5,12.9c-6.7-7.4-14.3-12.4-22.7-14.9l0-1.3c0.5,0,1,0,1.6,0c2.2,0,3.9-0.7,4.8-2c1-1.3,1.5-3.5,1.5-6.6
		l0-20.5c0-6.8-1.7-10.2-5.2-10.2c-0.8,0-1.4,0.1-1.8,0.3c-0.4,0.2-1.4,0.9-3,2.2l-1-1.1l1.1-1.1c4.6-4,8.3-7.4,11.3-10.1
		c2.6-2.4,4.6-4.2,5.9-5.3c4.1,1.9,7.1,4.2,9,6.8c1.9,2.6,3,5.8,3.1,9.7c3.1-2.5,6.3-5.6,9.7-9.2c0.9-0.9,2.4-2.6,4.5-5.1
		C437.8,161.8,438.5,161.1,439.3,160.2"/>
	<path class="st0" d="M222.3,95.1l-1,0.4c0.1,0.8,0.2,1.6,0.2,2.4c-0.4,0.2-0.8,0.4-1.2,0.6c-0.1,0-0.2,0-0.4,0
		c-0.8-1.3-0.6-2.5-2.3-3c-0.4,0.2-0.6,0.4-0.7,0.8c-0.3,1.1,0.6,1.7,0.8,2.4c0,0.7,0.1,1.4,0.1,2.1c0.2,0.8,0.8,2,1,2.9
		c0.4,1.5-0.6,2.8,1.1,3.1c0.3-0.1,0.5-0.3,0.8-0.4c0.1-0.4,0.1-0.9,0.2-1.3c0.1-0.1,0.1-0.1,0.2-0.2c1.4-0.1,1.8,0.6,2.9,0.9
		c0.6,0.1,1.2-0.2,1.8,0.1c0.3,0.4,0.6,0.7,0.9,1.1c2.1,1.2,3.3-0.4,4.9-0.3c0.3,0.6-0.2,2.1,0.4,2.5c0.6,0.5,3.1-1.9,3.4-2.3
		c0.4,0,0.8,0,1.2,0c0,0,0,0,0,0.1c-0.2,0.5-0.8,0.5-1,0.9c-0.2,0.2-0.7,1.8-0.7,2.1c-0.9,0.3-4.9,3.8-6.3,1.5
		c0.4-0.6,1.3-0.4,1.6-1c0-0.2,0-0.5,0-0.7c-0.1-0.1-0.3-0.3-0.4-0.4c-0.8-0.2-1.3,0.1-1.9,0.3c-0.6-0.4-0.9-0.2-1.3-0.4
		c-1.4-0.7-1.8-3.7-4.6-2.7c-0.5,0.2-1,0.5-1.3,1c-0.3,0.8,0.1,2,0.3,2.5c0.1,0.4,0.1,0.9,0.2,1.3c0.8,1.3,2.3,0.6,3.5,1.4
		c0.4,0.3,1,1.4,1.2,1.9c0.4,0.8,0.1,3.7,0.8,4.1c1.2,0.6,1.8-1.2,2.4-1.4c0.1,0.1,0.2,0.2,0.3,0.4c0.3,0.7-0.2,1.8-0.4,2.2
		c0,0.6,0.4,1.3,0.8,1.5c0.7,0.2,1.1-0.4,1.7-0.6c0.5,0.4,0.9,0.8,1.4,1.2c1.1,0.4,1.8-0.4,2.6-0.3c0.4,0.2,0.7,0.7,1.2,1
		c0.8-0.1,1.4-0.6,1.9-1c0.2,0.2,0.5,0.3,0.7,0.5c1.2-0.1,1.1-0.8,2.4-0.8c0.4,0.4,0.8,0.7,1.2,1.1c0.3,0.1,0.6,0.1,0.9-0.1
		c0.6-0.3,1.1-1.2,1-1.9c0,0,0.1-0.1,0.1-0.1c0.6,0.2,0.7,0.5,1.5,0.5c0.3-0.4,0.6-0.9,0.9-1.3c0.3,0,0.6,0,0.9,0
		c2-0.9-0.4-2.9-0.6-3.8c-0.3-1.1,1.6-3.1,2.4-3.6c0.3-0.2,0.7-0.1,0.8-0.4c0.7-1.3,1.1-2.6,2.4-3.2c0.2,0,0.3,0,0.5-0.1
		c0.2,0.2,0.3,0.4,0.4,0.6c-0.2,1-0.8,1.4-0.8,2.6c-1.5,0.9-3.5,1.9-4.4,3.5c0,0.2,0,0.5-0.1,0.7c0.5,0.5,1,0.9,1.6,1.4
		c2.4-0.1,3.5-1.5,5.2-2.2c3-1.2,5.7-2.2,8.3-3.7c2.3-1.4,1.2-2.4,5.5-2.3c0.4-0.6,1-1,1.3-1.5c0.9-1.6,0.7-2.8,2.7-3.4
		c0.1,0,0.1,0.1,0.2,0.1c0,0.3,0,0.7,0,1c-0.1,0.4-0.2,0.8-0.3,1.1c0.1,0.1,0.2,0.2,0.3,0.3c0,0.8,0.1,1.4,0.1,2
		c0.2,2.8,0.7,5.1,1.4,6.9c0.9,2.2,2.1,4,3.6,5.3c1.5,1.3,5.6,4.1,12.3,8.4c0.4,0.3,1.2,0.8,2.5,1.7c5.1-3.8,9.2-6.7,12.4-8.8
		c3.1-2.1,7.9-5,14.1-8.7l-0.6-1c-3.7,2.3-7.3,3.4-10.7,3.4c-4.1,0-7.9-1.5-11.2-4.5c-3.6-3.2-5.4-7.9-5.4-14.2l0-28.3l1.3-0.3
		c1.6,3.2,4.7,10.2,9.4,21c1.9-1.1,4.5-2.6,8-4.3c3-1.5,5.6-2.8,7.7-4l-9.4-19.2l-25.4,8.3c-4.4,1.4-7.2,3.6-8.4,6.4
		c-1.2,2.9-1.9,8.7-1.9,17.4c0,2.4,0,4.5,0,6.4c-1,0.8-2,2-3.2,2.4c-2-0.8-3.5,0.2-3.8,2.2c-1.7,1-3.6,1.5-5.4,2.6
		c-1.5,0.9-2.9,1.8-4.7,2.4c-0.1,0-0.2,0-0.3,0c0.1-0.6,0.2-1,0.8-1.2c0.7-1,0-2.1-0.8-2.7c0-0.2,0-0.3,0.1-0.5
		c0.1,0,0.2-0.1,0.3-0.2c0.7-0.2,1.2,0.7,2.1,0.7c0.8-0.8,2.3-2.6,1.4-4.2c0-0.1-0.1-0.1-0.1-0.2c-1.4-2.2-0.8-5.3,0.4-7.5
		c0.6-1.1,1.4-2.2,1.7-3.4c0.3-1.4-0.9-2-0.6-3.7c0.2-1,1-1.4,1.2-2.3c0.7-2.8-1.1-5.8-1.7-8c-0.4-1.4-0.7-2.6-1.3-3.8
		c-0.2-0.4-0.5-0.7-0.9-1.1c-5.3-5.3-5.9-8.2-13.8-9.3c-1.7-0.2-3.7,0.2-5.1,0.4c-1.8,0.3-3.3,0.1-4.8-0.1
		c-5.5-0.8-13.1,3.7-16.4,7.6c-0.4,0.5-0.8,1-1,1.3c-0.1,0.4-0.2,0.8-0.3,1.2c-0.6,0.8-1.2,1.5-1.8,2.3c-1,1.9-1.6,7.7-0.5,9.8
		c0.4,0.9,1.2,2.5,2.6,1.7c0.7-0.4,0.9-1.3,1.6-1.8c1.6,0.2,1,2.1,2.1,2.8c0.7-0.1,1-0.5,1.5-0.7c0.2,0.2,0.3,0.4,0.5,0.7
		c-0.2,1.4-1.6,1.6-1.9,2.8c0.1,0.7,0.2,1.3,0.3,2l0.4,0.4c0.2-0.4,0.6-0.6,1.1-0.6c0.9-0.3,2.1,0.9,3,1c1.6,0.2,3.3-0.4,4.9,0.2
		c0.4,0.3,0.9,0.6,1.3,1c0.6-0.3,0.9-0.7,1-1.5c-0.6-1.1-1-1.7-2.4-2.1c0,0,0,0,0-0.1c0.2-0.2,0.4-0.3,0.6-0.5
		c1.3,0,1.2,0.6,1.9,1.1c1.9,1.2,1.4,2.1,2.4,4c0.4,0.8,1.6,1.3,1.1,2.9c-0.2,0.3-0.3,0.5-0.5,0.8c-0.2,0.6,0.2,0.9-0.1,1.4
		c0,0,0,0.1,0,0.1c-0.6,0.7-1.2,0.4-1.3,1.8c-0.5-0.3-3.4,1.4-5.2,0.7c-2.4-0.9-2.9-4.2-4.7-5.7c-1-0.7-2-1.4-3-2.1
		C222.3,95.3,222.3,95.2,222.3,95.1 M255.8,92.7c-0.2,1.1-0.3,2.2-0.4,3.2c-0.3,1.1-1.1,2-1.5,3.2c-0.2,0.6,0.1,1.2,0.1,1.6
		c0.3,1.4-1.2,2.3-1.8,2.9c-0.1,0-0.2,0-0.3,0c-0.2-0.5-0.5-0.9-0.7-1.4c-0.9-0.5-1.8,0.5-2.8,0.2c-2-0.5-4.2-2.7-3.1-5.5
		c0.3-0.4,0.7-0.9,1-1.3c0.1-0.5-0.2-0.7-0.4-1.1c-0.1-0.1-0.3-0.1-0.4-0.2c-1.5,0.5-2.3,2.4-3,3.8c0,0.1,0,0.1-0.1,0.1
		c-0.5,0-1,0-1.5,0c-0.6,0.2-1.5,1.1-2.1,1.5c-0.2-1.1,0.7-1.7,0.4-3.1c-0.3-1.7-1.1-3.1-0.7-5c0.1-0.1,0.2-0.1,0.3-0.2
		c1.4,0.9,0.4,5,3.2,5.3c1-1,1.2-2.8,1.9-4.1c0.2-0.3,0.5-0.2,0.8-0.4c0.5-0.3,1.9-1.2,2.7-1c0.5,0.2,0.9,0.4,1.4,0.6
		c0.6,0,1.2,0.1,1.8,0.1c0.5,0.2,0.8,0.4,1.5,0.4c0.8-0.8,1.4-2.5,2.8-2.6c0.1-0.9-0.4-1.3-0.5-2c0-0.5,0-1.1,0-1.6
		c-0.4-0.8-0.8-1.6-1.3-2.4c0,0,0,0,0-0.1c0.2,0,0.3-0.1,0.4-0.2c0.4,0.7,0.9,2,2.1,1.7c0.1-0.1,0.3-0.3,0.4-0.4
		c0.6-3.2-1.6-4.1-1.8-6.4c0.1-0.1,0.3-0.2,0.4-0.3c0.6,0.3,1.3,0.8,2.1,0.7c0.2-0.1,0.3-0.3,0.4-0.4c0.4-2.8-2.1-4.1-2.1-6.5
		c0.1-0.1,0.1-0.2,0.2-0.3c0.2,0,0.4,0,0.5,0c0.5,0.4,1.3,1.2,1.5,2c0,0.4,0.1,0.8,0.1,1.2c0.2,0.5,0.9,1.2,1,1.7
		c0,0.6,0,1.3,0.1,1.9c0.4,1.6,1.8,5.3,1.1,7.4c-0.3,0.8-1.2,1.2-1.7,1.9c-0.4,0.5-0.3,1.2-0.6,1.8C257,90.5,256.1,91.6,255.8,92.7
		 M242.8,106.1c-0.3,1-3.5,1.7-4.2,0.6c-0.5-0.6,0.1-1.6-0.1-1.9c1.2-0.3,1.6-1.4,2.1-2.4c0.1,0,0.2,0,0.3,0
		C241.4,103.4,243.2,104.2,242.8,106.1 M195.3,116c0.8-0.5,1.3-1.2,1.6-2.2c-0.7-1.3-3.4-2.4-3-4.1c1.1-0.7,2.3,0.9,4.2,0.3
		c0.7-0.5,1.3-1,2-1.6c0.3-0.6,0-1,0.6-1.3c0.2,0,0.4-0.1,0.6-0.1c0.8,0.8,2.2,1.8,3.6,1.8c0.2-0.3,0.5-0.5,0.7-0.7
		c0.3,0,0.7,0.2,1.2,0.4c1.4,0.1,3.1,1.6,9.4,5.2c0.1,0,0.1,0.1,0.2,0.1c0.6,0,1.3-0.1,1.9-0.1c1.5,0.4,2,2.1,3.6,0.4
		c0-0.1,0-0.1,0-0.2c-0.4-0.7-1.3-1.1-1.8-1.8c-0.8-1.2-2.6-3.8-3.9-4.4c-2.1,0-7.4-2.9-10.4-4.9c-0.1,0-0.1,0-0.2-0.1
		c-0.3,0.2-0.4,0.1-0.4,0.5c-0.3,0.2-0.4,0.4-0.9,0.2c-0.1,0-0.1,0-0.2,0c-0.9-1.5-0.1-3.2-2.7-3.3c-0.9,0.8-2,1.9-2.5,3.1
		c-0.3,0.7-0.1,1.5-0.7,1.9c-0.8,0.6-2.4,1.7-3.9,1.4c-0.8-0.2-0.9-0.8-1.8-1c-1.2-0.2-2.5,2.6-2.7,3.5c-0.3,1.2,0.3,1.7,0.5,2.4
		C191.2,113.1,192.8,117.7,195.3,116 M282.6,133.4c-2.2-1.7-2.6-1-5.3-0.6c-0.8-0.1-1.6-0.1-2.4-0.2c-0.2,0-0.5,0.1-0.7,0.2
		c-1-0.3-2-1.3-2.8-1.7c-0.3,0-0.6-0.1-0.9-0.1c-5.7-2.7-12.4-4.9-15.1-7.1c-2.3-0.9-6-1.4-8.3-1.4c-0.9,0.5-2.1,0.5-2.7,1.2
		c0,0.3-0.1,0.6-0.1,0.9c0.7,0.7,1.6,0.8,2.5,1.2c3.8,2.1,3.5,1.7,7.5,3.8c1.8,0.9,3.7,2.1,5.4,2.8c1.2,0.5,2.2,0.3,3.4,0.7
		c0.9,0.3,1.4,1.4,2.2,1.7c1,0.2,2,0.4,3,0.6c1.2,0.4,6.1,3.9,7.2,3.5c1.3-0.5,1.1-1.8,1.6-3c0.1-0.3,0.3-0.4,0.6-0.5
		c0.2,0,0.3,0,0.5,0c0.3,0.5,0.6,1,0.9,1.5c-0.4,0.4-1.4,0.6-1.6,1.2c-0.4,1.1,0.8,1.2,0.5,2.1c-0.1,0.3-0.6,0.4-0.7,0.7
		c-0.1,0.3,0,0.9,0.1,1.2c0.1,0.2,0.2,0.3,0.4,0.4c0.4,0.1,0.8,0.2,1.2,0c0.4-0.3,0.4-1,0.7-1.4c0.4-0.5,1.2-0.8,1.5-1.4
		c0.4-0.8,0.4-1.5,0.8-2.2c0.5-0.7,1.2-1.1,1.5-2.1C283.6,134.6,283,133.7,282.6,133.4 M227.3,124.6c-1.8,0-3.6,0-5.4-0.1
		c-0.4,0.2-0.8,0.3-1.3,0.5c-0.4,0.4-0.9,0.8-1.3,1.3c-0.9,0.2-1.7,0.3-2.6,0.4c-0.9,0.6-1.8,1.3-2.7,1.9c-3.9,1.3-7.7,2.9-11.7,3.5
		c-1.1,0.2-3.5,0.3-4.1,0c-1.5-0.7-0.8-2.6-4.2-1.7c-0.9,1.3-1.8,2.3-1.6,4.5c0.5,0.3,1.1,0.4,1.5,0.8c-0.1,0.7-0.3,1.1-0.3,2.1
		c0.7,0.9,1.8,1.3,2.8,1.9c0.2,0.8,0,1.6,0.8,1.9c0.3,0,0.6,0.1,0.9,0.1c1.1-0.8,1-0.7,2.4-1.3c1-0.5,1-2.3,0.1-2.9
		c-0.7-0.1-1.5-0.1-2.2-0.2c-0.1-0.1-0.2-0.2-0.4-0.3c-0.1-0.7,0.2-1.1,0.7-1.3c1.7,0.1,2.9,1.2,4.1,1.8c2.2-0.8,3.9-2.5,6.2-3.4
		c1.9-0.7,4-0.6,5.9-1.3c2.6-1.1,5.6-2.4,8-3.8c0.4-0.2,0.7-0.1,1.2-0.2c1-0.6,2-1.1,3-1.7c0.3-0.1,0.7-0.1,1-0.1
		c0.2-0.3,0.4-0.5,0.6-0.8C228.5,125.6,227.9,124.9,227.3,124.6 M354.2,98.8c1.7,2.4,6.9,9.7,9,12.7c-1.1-1.5,7.1,11.9,19.4,17.3
		c5.1-4.2,9.2-7.5,12.4-9.8c3.1-2.3,7.8-5.6,14.1-9.7l-0.6-1.2c-3.7,2.5-7.3,3.8-10.7,3.8c-0.4,0-0.7,0-1.1,0
		c-4.9-0.4-9.9-2.3-13.9-5.4l-15.3-14.9c-1.7-1.9-2.9-3.3-3.1-3.7c-0.3-0.5-0.5-0.8-0.5-0.8s0.5-1.4,3.4-3.9
		c10.1-8.8,26.5-19.5,28.2-19.3c0.4,0,0.8,0.1,1.3,0.1l0-1.5c-1.3-0.2-2.4-0.3-3.2-0.3c-4.6,0-7.8,2-11.6,4.9l-27.6,21.1l0.2-28.3
		c0.4-5.1,2.4-10.5,5.9-16.3l-1.1-0.9c-1.9,2.8-3.6,6.4-5.1,10.8c-2.5-5.1-6.2-8.7-11.1-11c-4.8-2.2-11-3.3-18.6-3.3
		c-1.4,0-3.3,0.1-5.6,0.3v1.4c2.5-0.1,4.1-0.2,4.7-0.2c4.1,0,7.3,0.9,9.7,2.7c1.8,1.4,2.7,3.8,2.7,7.3l0,7.8c-1.7-3.6-3.1-5.9-4.1-7
		c-2.3-2.5-4.5-3.7-6.6-3.7c-1.7,0-3.3,0.8-4.6,2.5c-1.3,1.6-2,3.6-2,5.8c0,1.8,0.5,3.3,1.5,4.4c1,1.2,2.2,1.8,3.7,1.8
		c1.4,0,2.6-0.5,3.6-1.6c1-1.1,1.4-2.5,1.4-4.2c0-0.7-0.1-1.3-0.2-1.9c-0.2-0.7-0.3-1.2-0.3-1.5c0-0.7,0.3-1.1,1-1.1
		c0.7,0,1.5,0.8,2.5,2.4c1.1,1.6,1.9,3.4,2.6,5.4c0.8,2.4,1.2,5.5,1.4,9.3l0,21.7c0,7.3,0,18.9,0,18.9c0,2.1-0.5,3.9-1.5,5.3
		c-1,1.4-2.3,2.1-3.8,2.1c-1.2,0-2.2-0.3-3-0.8c-0.9-0.5-2.7-2-5.7-4.5l-1,1c0.9,1,3.3,3.2,7.2,6.6c8.2,7.4,13,12,14.6,13.8
		c5-6.5,10.9-11.5,17.5-15l0-0.9c-2.3,0-3.9-0.3-4.8-1c-0.9-0.7-1.4-1.8-1.4-3.5l0-3L354.2,98.8z M175,52.7c2.2,0.1,5.7,1.1,10.4,3
		c4,1.7,7.4,2.8,10.2,3.5c2.8,0.6,5.9,0.9,9.4,0.9c14.2,0,21.3-5.4,21.3-16.3c0-1.9-0.5-3.9-1.3-6.2l-4,0c0.4,2.1,0.7,3.7,0.7,5
		c0,2.1-1.3,3.2-3.9,3.2c-1.3,0-3.6-0.8-6.7-2.4c-7.7-3.9-15.6-5.8-23.5-5.8c-3.2,0-6.3,0.5-9.3,1.4c-3,0.9-5.4,2.2-7.2,3.7
		c-4.1,3.5-6.1,7.9-6.1,13.1c0,0.2,0,0.4,0,0.7c0,0.9,0.1,1.9,0.2,3c0.3,3.4,0.4,5.8,0.4,6.9c0,3.3-0.6,5.9-1.8,7.8
		c-1.2,1.9-3.3,3.6-6.2,5.1l0,1.4h7.6c0.8,10.7,2.1,22.6,3.9,35.5c1.7,13,4,27.2,6.7,42.6l1.6,0c2-8.8,4-20.9,6.1-36
		c2.1-15.3,3.6-29.1,4.5-42.1l16.9,0l0-9c-6.9-0.7-18.7-1.2-20.3-1.4c-1.5-0.3-3.5-0.9-5.9-1.8c-1.4-0.5-2.6-1.2-3.8-1.8
		C168.1,62.4,163.1,54,175,52.7"/>
</g>
</svg>
